<?xml version="1.0" encoding="utf-8"?>
<!-- Svg Vector Icons : http://www.onlinewebfonts.com/icon -->
<!DOCTYPE svg PUBLIC "-//W3C//DTD SVG 1.1//EN" "http://www.w3.org/Graphics/SVG/1.1/DTD/svg11.dtd">
<svg fill="white" version="1.1" xmlns="http://www.w3.org/2000/svg" xmlns:xlink="http://www.w3.org/1999/xlink" x="0px" y="0px" viewBox="0 0 1000 1000" enable-background="new 0 0 1000 1000" xml:space="preserve">
<metadata> Svg Vector Icons : http://www.onlinewebfonts.com/icon </metadata>
<g><path d="M642,123.9L876,358L361.1,873L127,638.9L642,123.9z"/><path d="M735.6,30.3l234.1,234.1l-70.2,70.2L665.4,100.5L735.6,30.3z"/><path d="M103.6,662.3l234.1,234.1L10,990L103.6,662.3z"/><path d="M826.4,27.3l146.3,146.3c24.2,24.2,22.9,64.9-2.9,90.7c-25.9,25.8-66.5,27.1-90.7,2.9L732.7,121c-24.2-24.3-22.9-64.9,2.9-90.7C761.5,4.4,802.1,3.1,826.4,27.3z"/></g>
</svg>