<?xml version="1.0" encoding="iso-8859-1"?>
<!-- Generator: Adobe Illustrator 24.1.2, SVG Export Plug-In . SVG Version: 6.00 Build 0)  -->
<svg version="1.1" baseProfile="basic" id="Livello_1"
	 xmlns="http://www.w3.org/2000/svg" xmlns:xlink="http://www.w3.org/1999/xlink" x="0px" y="0px" viewBox="0 0 508.919 242.833"
	 xml:space="preserve">
<g>
	<g>
		<path style="fill:#bdbebd;" d="M31.815,198.766c4.493,0,7.739,1.512,10.764,4.137c0.399,0.356,0.399,0.891,0.045,1.247
			l-1.958,2.001c-0.311,0.401-0.712,0.401-1.113,0c-2.09-1.825-4.937-2.981-7.695-2.981c-6.36,0-11.165,5.338-11.165,11.567
			c0,6.227,4.85,11.521,11.211,11.521c3.246,0,5.515-1.292,7.65-2.937c0.401-0.311,0.802-0.267,1.068-0.043l2.047,2.001
			c0.356,0.311,0.267,0.889-0.043,1.201c-3.026,2.935-6.852,4.314-10.81,4.314c-8.897,0-16.059-7.072-16.059-15.969
			S22.918,198.766,31.815,198.766z"/>
		<path style="fill:#bdbebd;" d="M66.552,198.766c8.897,0,16.014,7.163,16.014,16.059s-7.117,15.969-16.014,15.969
			s-15.969-7.072-15.969-15.969S57.655,198.766,66.552,198.766z M66.552,226.481c6.362,0,11.567-5.295,11.567-11.655
			c0-6.317-5.204-11.744-11.567-11.744c-6.315,0-11.521,5.426-11.521,11.744C55.03,221.186,60.237,226.481,66.552,226.481z"/>
		<path style="fill:#bdbebd;" d="M91.503,225.857l1.156-1.825c0.356-0.578,1.024-0.755,1.514-0.356
			c2.09,1.736,3.69,3.069,7.117,3.069c3.069,0,5.025-1.868,5.025-4.137c0-2.668-2.312-4.359-6.716-6.183
			c-4.538-1.913-8.096-4.27-8.096-9.429c0-3.47,2.67-8.23,9.742-8.23c4.447,0,7.784,2.314,8.23,2.625
			c0.356,0.222,0.712,0.845,0.265,1.512l-1.111,1.691c-0.356,0.578-0.934,0.845-1.557,0.444c-1.734-1.111-3.425-2.224-6.004-2.224
			c-3.738,0-5.027,2.357-5.027,4.003c0,2.536,1.956,4.093,5.649,5.605c5.161,2.09,9.565,4.538,9.565,9.964
			c0,4.626-4.139,8.407-9.921,8.407c-5.426,0-8.851-2.847-9.563-3.513C91.37,226.925,91.014,226.612,91.503,225.857z"/>
		<path style="fill:#bdbebd;" d="M126.82,203.393h-7.251c-0.49,0-0.845-0.399-0.845-0.845v-2.491c0-0.444,0.356-0.843,0.845-0.843
			h19.128c0.49,0,0.845,0.399,0.845,0.843v2.491c0,0.446-0.356,0.845-0.845,0.845h-7.251v26.112c0,0.444-0.401,0.845-0.845,0.845
			h-2.935c-0.444,0-0.845-0.401-0.845-0.845V203.393z"/>
		<path style="fill:#bdbebd;" d="M149.193,200.056c0-0.444,0.356-0.843,0.845-0.843h12.099c5.338,0,9.697,4.225,9.697,9.518
			c0,4.093-2.713,7.473-6.584,9.03l6.095,11.299c0.311,0.578,0,1.29-0.755,1.29h-3.336c-0.49,0-0.757-0.222-0.934-0.578
			l-5.828-11.61h-6.718v11.342c0,0.444-0.399,0.845-0.845,0.845h-2.89c-0.49,0-0.845-0.401-0.845-0.845V200.056z M161.782,214.336
			c2.89,0,5.426-2.446,5.426-5.517c0-2.89-2.536-5.293-5.426-5.293h-7.919v10.81H161.782z"/>
		<path style="fill:#bdbebd;" d="M182.465,200.056c0-0.444,0.399-0.843,0.843-0.843h2.981c0.49,0,0.845,0.399,0.845,0.843v18.727
			c0,4.449,2.847,7.564,7.385,7.564c4.581,0,7.473-3.069,7.473-7.473v-18.818c0-0.444,0.356-0.843,0.845-0.843h2.981
			c0.444,0,0.845,0.399,0.845,0.843v19.04c0,6.761-5.116,11.698-12.145,11.698c-6.984,0-12.054-4.937-12.054-11.698V200.056z"/>
		<path style="fill:#bdbebd;" d="M215.999,229.504c0-0.578,0-0.8,0.356-1.423l14.323-24.421v-0.177h-12.544
			c-0.444,0-0.845-0.401-0.845-0.845v-2.581c0-0.444,0.401-0.843,0.845-0.843h18.283c0.444,0,0.845,0.399,0.845,0.843
			c0,0.446,0,0.58-0.311,1.158l-14.413,24.865v0.045h12.99c0.49,0,0.843,0.399,0.843,0.845v2.534c0,0.444-0.354,0.845-0.843,0.845
			h-18.684C216.4,230.35,215.999,229.949,215.999,229.504z"/>
		<path style="fill:#bdbebd;" d="M247.048,200.056c0-0.444,0.401-0.843,0.845-0.843h2.935c0.444,0,0.845,0.399,0.845,0.843v29.448
			c0,0.444-0.401,0.845-0.845,0.845h-2.935c-0.444,0-0.845-0.401-0.845-0.845V200.056z"/>
		<path style="fill:#bdbebd;" d="M278.271,198.766c8.897,0,16.014,7.163,16.014,16.059s-7.117,15.969-16.014,15.969
			s-15.969-7.072-15.969-15.969S269.375,198.766,278.271,198.766z M278.271,226.481c6.362,0,11.567-5.295,11.567-11.655
			c0-6.317-5.204-11.744-11.567-11.744c-6.315,0-11.519,5.426-11.519,11.744C266.752,221.186,271.956,226.481,278.271,226.481z"/>
		<path style="fill:#bdbebd;" d="M304.914,199.567c0-0.444,0.401-0.8,0.845-0.8h0.356c0.444,0,0.755,0,1.335,0.668l18.682,21.663
			h0.088v-21.041c0-0.444,0.356-0.843,0.845-0.843h2.847c0.444,0,0.845,0.399,0.845,0.843v29.938c0,0.444-0.401,0.8-0.845,0.8
			h-0.399c-0.446,0-0.757,0-1.292-0.623l-18.727-22.329h-0.089v21.663c0,0.444-0.356,0.845-0.845,0.845h-2.802
			c-0.444,0-0.845-0.401-0.845-0.845V199.567z"/>
		<path style="fill:#bdbebd;" d="M343.3,200.056c0-0.444,0.401-0.843,0.845-0.843h2.935c0.444,0,0.845,0.399,0.845,0.843v29.448
			c0,0.444-0.401,0.845-0.845,0.845h-2.935c-0.444,0-0.845-0.401-0.845-0.845V200.056z"/>
		<path style="fill:#bdbebd;" d="M375.591,200.056c0-0.444,0.356-0.843,0.845-0.843h17.793c0.49,0,0.845,0.399,0.845,0.843v2.491
			c0,0.446-0.356,0.845-0.845,0.845h-14.058v9.076h11.877c0.444,0,0.845,0.399,0.845,0.845v2.491c0,0.49-0.401,0.843-0.845,0.843
			h-11.877v9.565h14.058c0.49,0,0.845,0.399,0.845,0.845v2.446c0,0.444-0.356,0.845-0.845,0.845h-17.793
			c-0.49,0-0.845-0.401-0.845-0.845V200.056z"/>
		<path style="fill:#bdbebd;" d="M405.659,200.056c0-0.444,0.356-0.843,0.8-0.843h10.232c8.584,0,15.613,6.984,15.613,15.524
			c0,8.629-7.029,15.613-15.613,15.613h-10.232c-0.444,0-0.8-0.401-0.8-0.845V200.056z M416.201,226.125
			c6.539,0,11.165-4.805,11.165-11.388c0-6.539-4.626-11.299-11.165-11.299h-6.004v22.687H416.201z"/>
		<path style="fill:#bdbebd;" d="M442.977,200.056c0-0.444,0.401-0.843,0.845-0.843h2.935c0.444,0,0.845,0.399,0.845,0.843v29.448
			c0,0.444-0.401,0.845-0.845,0.845h-2.935c-0.444,0-0.845-0.401-0.845-0.845V200.056z"/>
		<path style="fill:#bdbebd;" d="M460.145,200.056c0-0.444,0.356-0.843,0.845-0.843h2.935c0.444,0,0.845,0.399,0.845,0.843v26.157
			h12.054c0.49,0,0.845,0.399,0.845,0.845v2.446c0,0.444-0.356,0.845-0.845,0.845h-15.835c-0.49,0-0.845-0.401-0.845-0.845V200.056z
			"/>
		<path style="fill:#bdbebd;" d="M486.877,200.056c0-0.444,0.401-0.843,0.845-0.843h2.935c0.444,0,0.845,0.399,0.845,0.843v29.448
			c0,0.444-0.401,0.845-0.845,0.845h-2.935c-0.444,0-0.845-0.401-0.845-0.845V200.056z"/>
	</g>
	<g>
		<path style="fill:#bdbebd;" d="M130.884,63.904c9.502,0,16.533,2.945,22.996,8.838c0.855,0.759,0.855,1.899,0.094,2.66
			l-7.412,7.695c-0.665,0.667-1.711,0.667-2.375,0c-3.895-3.419-8.171-4.844-12.827-4.844c-10.737,0-18.623,8.93-18.623,19.573
			c0,10.548,7.98,19.289,18.717,19.289c5.226,0,9.311-1.616,12.732-4.561c0.665-0.57,1.901-0.57,2.471,0.094l7.41,7.888
			c0.667,0.665,0.57,1.899-0.094,2.564c-6.461,6.272-14.634,9.217-23.09,9.217c-19.002,0-34.301-15.108-34.301-34.112
			C96.584,79.202,111.882,63.904,130.884,63.904z"/>
	</g>
	<g>
		<path style="fill:#bdbebd;" d="M227.029,66.66c0-0.952,0.761-1.807,1.711-1.807h23.184c18.338,0,33.351,14.919,33.351,33.162
			c0,18.432-15.013,33.351-33.351,33.351h-23.184c-0.95,0-1.711-0.855-1.711-1.805V66.66z M251.829,117.303
			c10.737,0,17.673-8.456,17.673-19.287c0-10.737-6.936-19.193-17.673-19.193h-9.978v38.481H251.829z"/>
	</g>
	<g>
		<path style="fill:#bdbebd;" d="M384.688,63.904c9.502,0,16.533,2.945,22.996,8.838c0.855,0.759,0.855,1.899,0.094,2.66
			l-7.412,7.695c-0.665,0.667-1.711,0.667-2.375,0c-3.895-3.419-8.171-4.844-12.827-4.844c-10.737,0-18.623,8.93-18.623,19.573
			c0,10.548,7.98,19.289,18.717,19.289c5.226,0,9.311-1.616,12.732-4.561c0.665-0.57,1.901-0.57,2.471,0.094l7.41,7.888
			c0.667,0.665,0.57,1.899-0.094,2.564c-6.461,6.272-14.634,9.217-23.09,9.217c-19.002,0-34.301-15.108-34.301-34.112
			C350.388,79.202,365.686,63.904,384.688,63.904z"/>
	</g>
	<g>
		<path style="fill:#bdbebd;" d="M380.44,10.795c-47.813,0-86.573,38.76-86.573,86.573c0,14.373,3.523,27.916,9.722,39.846
			c4.211-5.082,7.582-10.864,10.027-17.112c-2.43-7.142-3.809-14.769-3.809-22.733c0-39.009,31.623-70.633,70.633-70.633
			s70.633,31.623,70.633,70.633s-31.623,70.633-70.633,70.633c-17.861,0-34.125-6.682-46.563-17.614
			c-3.003,4.429-6.367,8.59-10.057,12.44c15.181,13.143,34.964,21.114,56.62,21.114c47.813,0,86.573-38.76,86.573-86.573
			C467.013,49.555,428.253,10.795,380.44,10.795z"/>
		<path style="fill:#bdbebd;" d="M207.307,57.522c-4.211,5.082-7.582,10.864-10.027,17.112c2.43,7.142,3.809,14.769,3.809,22.733
			c0,39.009-31.623,70.633-70.633,70.633s-70.633-31.623-70.633-70.633s31.623-70.633,70.633-70.633
			c17.861,0,34.125,6.682,46.563,17.614c3.003-4.429,6.367-8.59,10.057-12.44c-15.181-13.143-34.964-21.114-56.62-21.114
			c-47.813,0-86.573,38.76-86.573,86.573c0,47.813,38.76,86.573,86.573,86.573s86.573-38.76,86.573-86.573
			C217.029,82.995,213.506,69.452,207.307,57.522z"/>
		<path style="fill:#bdbebd;" d="M332.299,57.522c-4.211,5.082-7.582,10.864-10.027,17.112c2.43,7.142,3.809,14.769,3.809,22.733
			c0,39.009-31.623,70.633-70.633,70.633c-17.861,0-34.125-6.682-46.563-17.614c-3.003,4.429-6.367,8.59-10.057,12.44
			c15.181,13.143,34.964,21.114,56.62,21.114c47.813,0,86.573-38.76,86.573-86.573C342.021,82.995,338.497,69.452,332.299,57.522z"
			/>
		<path style="fill:#bdbebd;" d="M178.597,137.214c4.211-5.082,7.582-10.864,10.027-17.112c-2.43-7.142-3.809-14.769-3.809-22.733
			c0-39.009,31.623-70.633,70.633-70.633v0c17.861,0,34.125,6.682,46.563,17.614c3.003-4.429,6.367-8.59,10.057-12.44
			c-15.181-13.143-34.964-21.114-56.62-21.114c-47.813,0-86.573,38.76-86.573,86.573
			C168.876,111.741,172.399,125.284,178.597,137.214z"/>
	</g>
</g>
</svg>
