<?xml version="1.0" encoding="utf-8"?>
<!-- Svg Vector Icons : http://www.onlinewebfonts.com/icon -->
<!DOCTYPE svg PUBLIC "-//W3C//DTD SVG 1.1//EN" "http://www.w3.org/Graphics/SVG/1.1/DTD/svg11.dtd">
<svg version="1.1" xmlns="http://www.w3.org/2000/svg" xmlns:xlink="http://www.w3.org/1999/xlink" x="0px" y="0px" viewBox="0 0 1000 1000" enable-background="new 0 0 1000 1000" xml:space="preserve">
<metadata> Svg Vector Icons : http://www.onlinewebfonts.com/icon </metadata>
<g><path d="M827.1,549.5c17.7-10.6,53.3-2.9,42.2-45.2c-8.9-34,18.7-57.4,52.4-46.2c22.8,7.6,34,1.4,40.7-19.9c2.7-8.6,6.3-17.3,11.3-24.8c15.3-23.1,15-39.9-12.5-55c-22.8-12.5-21.2-53.8,2.8-63.6c30-12.4,31.1-29.6,18.1-54.1c-2.8-5.3-5-11.2-6.1-17.1c-5.5-27.4-17.8-39.4-48.5-30.4c-23.4,6.9-52.1-23-43.3-44.5c12.8-31.2,2.7-46.4-27.1-54.9c-9.6-2.8-18.9-7.6-27.4-13c-14.6-9.3-23.8-7.7-34.6,7.6c-26.1,37.3-55.6,35.9-78.5-3.8c-8.7-15.1-17-17.4-31.4-11c-10.1,4.5-20.6,8.9-31.4,11.2c-28.6,6.1-40.9,19.3-31.1,50.6c6.4,20.5-24.4,49.4-43.7,40.7c-34-15.4-47.3,1.8-56.5,30.1c-3.1,7.3-5.7,11.5-9.3,18.1c-14,20.1-8.5,33.1,12.2,46.1c28.4,17.9,27,55-2.8,69.1c-22.7,10.7-27.7,22.9-16.5,44.4c4.6,8.9,8.2,18.7,10.2,28.5c5.3,26.2,18.1,33.8,45,26.4c27.1-7.4,54.1,22.1,44.1,48.5c-10.5,27.7-2.2,41.2,24.1,48.7c6.7,1.9,13.4,5.1,19.2,9.1c23.1,15.7,40.2,15.2,54.7-12.7c10.2-19.5,52.5-21,60.3-2.3C777.8,563.7,797.5,568.7,827.1,549.5L827.1,549.5z M777,504.4c-12.1-27.3-65.5-29-81.4-3c-10.3,16.8-19.9,18.3-35.6,8.7c-14.8-9.1-36.4-10.1-25.5-38.6c10.7-27.8-25.5-67.8-54.8-60.1c-25.1,6.6-27.7-7.9-33.7-24.2c-6.1-16.5-11.9-29.3,10.5-40.4c28.7-14.1,28.7-63.8,2.3-83.1c-18.2-13.4-15.2-12.5-15.1-14.8c4.2-14.9,10.4-30,19.9-43.7c8.5-12.2,18.8-1.7,27.6,0.3c27.2,6.3,66.3-28.4,58.7-55.5c-6.3-22.4,5-27.2,21.6-33c17.5-6.1,32-13.1,43.1,10.8c11.9,25.7,65,27.8,79.6,3.1c11-18.7,21.7-18.1,37.8-8.5c15.1,9,36.1,10.5,23.9,38.9c-10.4,24.3,25.4,64.5,51,59.2c21.2-4.4,31.6,1,38.1,22.7c5.6,19,9.5,31.4-13,42.3c-25.2,12.2-26.9,66.4-2.3,79.9c27,14.8,10.1,29.1,5,45.5c-6.1,19.7-16.2,22.7-35.1,16.1c-26.1-9.2-65.7,26.8-58.5,53.7c6.9,25.8-9.6,29-26.6,35.5C798.1,522.4,786.5,525.7,777,504.4L777,504.4z"/><path d="M778.7,514.5"/><path d="M890.4,264.9c-27.7-79.2-117.1-122.5-196.2-95c-79.4,27.6-121.5,116.5-93.1,196.5c28.7,80.8,116.1,123.3,195.4,95.1C875.8,433.3,918.3,344.4,890.4,264.9L890.4,264.9z M633.2,356.7c-22.9-63.2,9.6-133.1,71.9-154.9c60.9-21.3,130.7,11.8,153.1,72.7c22.7,61.8-10.8,133.2-72.7,154.9C723.5,451.1,655.7,418.7,633.2,356.7L633.2,356.7z"/><path d="M618.4,362.1"/><path d="M381.4,475.7c15.7-13.5,52.2-12.1,34-52.1c-14.6-32.1,8.6-60,43.9-54.8c23.8,3.6,33.9-4.5,36.9-26.7c1.2-9,3.3-18.3,6.9-26.5c11.1-25.5,7.9-42.1-21.9-52.3c-24.8-8.5-30.2-49.6-8.2-63.5c27.5-17.4,25.7-34.6,8.6-56.7c-3.7-4.8-6.8-10.3-9-15.9c-10.2-26.2-24.4-35.9-53.2-21.7c-22,10.9-55.5-13.8-50.5-36.6c7.2-33-5.4-46.3-36.3-49.7c-10-1.1-20-4.2-29.4-8.1c-16.1-6.6-24.9-3.5-32.9,13.5c-19.4,41.4-48.8,45.1-78.4,9.8c-11.2-13.4-19.8-14.3-33-5.4c-9.3,6.2-18.9,12.3-29.2,16.5c-27.2,11-37.2,26.2-22,55.5c9.9,19.2-15.6,53.1-36.2,47.8c-36.3-9.3-46.5,10-50.7,39.5c-1.8,7.7-3.7,12.4-6.1,19.5c-10.4,22.3-2.7,34.2,20,43.5c31.2,12.8,36.2,49.8,9.2,68.9c-20.6,14.5-23.5,27.5-8.6,46.8c6.1,8,11.4,17.1,15,26.5c9.8,25,23.7,30.4,49.1,18.4c25.6-12,57.4,12.5,52,40.3c-5.6,29.2,5,41.1,32.2,44c7,0.7,14.1,2.8,20.5,5.7c25.5,11.5,42.4,8.1,52-22c6.7-21.1,48.4-29.8,59.3-12.7C335,498.3,355.3,499.7,381.4,475.7L381.4,475.7z M323.7,439.1c-16.6-24.8-69.6-17.3-80.8,11.1c-7.3,18.4-16.5,21.4-33.6,14.7c-16.2-6.4-37.7-3.7-31.7-33.7c5.8-29.3-36.8-62.5-64.4-49.9c-23.7,10.8-28.7-3.1-37.4-18c-8.9-15.2-16.8-26.8,3.4-41.6c25.9-18.9,17.4-67.8-12-82.4c-20.2-10-17.1-9.7-17.5-12c1.6-15.4,5.1-31.4,12.1-46.6c6.3-13.5,18.2-4.9,27.2-4.4c27.9,1.6,60.5-39.4,48.3-64.8c-10.1-21,0.3-27.7,15.6-36.2c16.2-9,29.3-18.5,44.4,3.3c16.2,23.2,68.9,16.2,79-10.6c7.7-20.3,18.3-21.5,35.8-14.8c16.4,6.3,37.4,4.2,30.3,34.2c-6.1,25.8,36.1,59.2,60.5,49.6c20.2-7.9,31.3-4.5,41.4,15.8c8.8,17.7,14.7,29.4-5.6,43.9c-22.8,16.3-15.2,70.1,11.5,79.1c29.1,9.9,14.9,27,12.7,44c-2.7,20.5-12.1,25.2-31.8,21.9c-27.4-4.6-60.2,37.7-48.5,63c11.2,24.3-4.5,30.3-20.1,39.5C347.6,453.2,336.7,458.5,323.7,439.1L323.7,439.1z"/><path d="M327.1,448.6"/><path d="M394.2,183.4c-40.9-73.3-136.4-100.5-209.6-59.8c-73.5,40.8-99.7,135.7-58,209.6c42.2,74.7,135.5,101.6,208.9,60.1C408.8,351.8,435.4,257,394.2,183.4L394.2,183.4z M155.7,318.7c-33.7-58.8-13.6-134,44.6-166.5c56.9-31.8,132-10.9,164.8,45.7c33.3,57.5,12.3,134.4-45.5,166.6C261.8,396.8,188.8,376.4,155.7,318.7L155.7,318.7z"/><path d="M143,326"/><path d="M599.4,946.9c15.5-15.1,54.2-16.4,31.8-56.1c-17.9-31.9,4.4-62.4,42.1-59.6c22.1,1.6,35.4-6.9,36.8-30.2c0.6-9.4,2-19,5.2-27.8c9.8-27,5.1-43.8-27.2-52c-26.8-6.8-35.7-48.6-13.6-64.6c27.7-20,24.5-37.5,4.7-58.9c-4.3-4.6-8-10-10.8-15.7c-12.8-26.1-28.5-35.1-57.8-18.3c-22.4,12.8-59.6-10-56.1-33.8c5.1-34.5-9.3-47.2-42.1-48.3c-10.6-0.4-21.5-2.8-31.6-6.1c-17.4-5.6-26.6-1.7-33.7,16.3c-17.3,44-48,50.1-82,16c-12.9-13-22-13.2-35.2-3.1c-9.3,7.1-19,14.1-29.5,19.2c-27.9,13.4-37.2,29.7-19,58.7c12,19-12.3,55.7-34.5,51.8c-39-6.9-48.3,13.7-50.5,44.4c-1.3,8.1-2.9,13-4.9,20.5c-9.3,23.7-0.2,35.3,24.5,43.2c33.9,10.8,42,48.5,15,70.1c-20.7,16.5-22.7,30-5.5,48.8c7.1,7.8,13.3,16.7,17.9,26.1c12.2,24.9,27.4,29.4,53.2,15.2c26.1-14.3,61.5,8.5,58.1,37.5c-3.6,30.5,8.4,41.9,37.4,42.8c7.4,0.2,15.1,1.8,22.1,4.3c27.8,9.9,45.4,5.1,53.1-26.5c5.5-22.2,48.7-34.3,61.6-17.5C552.3,973.6,573.8,973.6,599.4,946.9L599.4,946.9z M525.1,898.6c-18.1-23.2-69.5-12-78.5,16.7c-5.8,18.5-14.6,22.2-31.9,16.8c-16.3-5.1-37.2-0.9-33.6-30.7c3.6-29.1-40.6-58.6-66.7-44.3c-22.4,12.3-28.3-0.9-38-15c-9.8-14.3-18.4-25.1,0.4-41c24-20.4,12.2-67.7-17.7-79.9c-20.6-8.4-17.5-8.3-18-10.5c0.4-15.3,2.7-31.1,8.5-46.5c5.2-13.7,17.5-6.1,26.4-6.3c27.5-0.5,56.5-43,42.7-67c-11.4-19.9-1.7-27.1,12.7-36.6c15.2-10,27.4-20.2,43.7,0c17.5,21.6,68.7,10.9,76.7-16.1c6.1-20.5,16.4-22.4,34-17.1c16.5,5,37,1.4,32.2,31.4c-4.1,25.7,39.7,55.5,62.9,44.3c19.2-9.2,30.4-6.6,41.8,12.6c9.9,16.7,16.6,27.7-2.3,43.5c-21.1,17.7-9.8,69.8,16.9,76.8c29.3,7.6,16.6,25.4,15.7,42.2c-1.1,20.3-10.1,25.5-29.6,23.7c-27.2-2.5-56.3,41.3-43,65.3c12.7,23-2.2,30-16.9,40.2C549.5,910.8,539.2,916.7,525.1,898.6L525.1,898.6z"/><path d="M530.5,910.8"/><path d="M578,641.4c-46.2-70.1-143.4-90.3-213.5-44.3C294.3,643.2,275,739.7,322,810.4c47.5,71.4,142.6,91.4,212.7,44.7C604.8,808.4,624.4,711.8,578,641.4L578,641.4z M355,790.4c-36-53.4-22.2-126,30.7-160.8c51.7-34,124.3-19.5,159.3,31.9c35.6,52.2,21,126.4-31.5,161C460.9,857.1,390.3,842.8,355,790.4L355,790.4z"/><path d="M337.8,802"/></g>
</svg>