<svg id="visual" viewBox="0 0 540 960" width="540" height="960" xmlns="http://www.w3.org/2000/svg" xmlns:xlink="http://www.w3.org/1999/xlink" version="1.1"><path d="M0 693L18 697.3C36 701.7 72 710.3 108 713.8C144 717.3 180 715.7 216 715.5C252 715.3 288 716.7 324 723C360 729.3 396 740.7 432 733.5C468 726.3 504 700.7 522 687.8L540 675L540 961L522 961C504 961 468 961 432 961C396 961 360 961 324 961C288 961 252 961 216 961C180 961 144 961 108 961C72 961 36 961 18 961L0 961Z" fill="#5401a7"></path><path d="M0 772L18 764.8C36 757.7 72 743.3 108 746.2C144 749 180 769 216 775.5C252 782 288 775 324 774.7C360 774.3 396 780.7 432 774.2C468 767.7 504 748.3 522 738.7L540 729L540 961L522 961C504 961 468 961 432 961C396 961 360 961 324 961C288 961 252 961 216 961C180 961 144 961 108 961C72 961 36 961 18 961L0 961Z" fill="#4b32c0"></path><path d="M0 764L18 772.7C36 781.3 72 798.7 108 810.7C144 822.7 180 829.3 216 827.8C252 826.3 288 816.7 324 810.5C360 804.3 396 801.7 432 796C468 790.3 504 781.7 522 777.3L540 773L540 961L522 961C504 961 468 961 432 961C396 961 360 961 324 961C288 961 252 961 216 961C180 961 144 961 108 961C72 961 36 961 18 961L0 961Z" fill="#3d4ed7"></path><path d="M0 850L18 853C36 856 72 862 108 862.7C144 863.3 180 858.7 216 858C252 857.3 288 860.7 324 861.8C360 863 396 862 432 855.5C468 849 504 837 522 831L540 825L540 961L522 961C504 961 468 961 432 961C396 961 360 961 324 961C288 961 252 961 216 961C180 961 144 961 108 961C72 961 36 961 18 961L0 961Z" fill="#2968ec"></path><path d="M0 912L18 910.5C36 909 72 906 108 904C144 902 180 901 216 903.5C252 906 288 912 324 908.3C360 904.7 396 891.3 432 885.3C468 879.3 504 880.7 522 881.3L540 882L540 961L522 961C504 961 468 961 432 961C396 961 360 961 324 961C288 961 252 961 216 961C180 961 144 961 108 961C72 961 36 961 18 961L0 961Z" fill="#0080ff"></path></svg>