<?xml version="1.0" encoding="iso-8859-1"?>
<!-- Generator: Adobe Illustrator 19.0.0, SVG Export Plug-In . SVG Version: 6.00 Build 0)  -->
<svg version="1.1" id="Layer_1" xmlns="http://www.w3.org/2000/svg" xmlns:xlink="http://www.w3.org/1999/xlink" x="0px" y="0px"
	 viewBox="0 0 512.001 512.001" style="enable-background:new 0 0 512.001 512.001;" xml:space="preserve">
<path d="M450.536,224.687h49.976L256.001,0L11.489,224.687h49.976v269.357H22.558v17.957h466.886v-17.957h-38.907V224.687z
	 M57.569,206.73l26.056-23.943h262.161V164.83h-242.62L256.001,24.387l198.431,182.342H57.569V206.73z M79.422,464.114h86.793
	v-17.957H79.422V224.686h353.157v221.471h-86.793v17.957h86.793v29.929H324.836v-71.102l41.9-41.9v-25.727
	c17.137-4.065,29.929-19.487,29.929-37.85c0-21.453-17.454-38.907-38.907-38.907s-38.907,17.454-38.907,38.907
	c0,18.363,12.791,33.785,29.929,37.85v18.289l-41.9,41.9v78.54h-41.9V379.41c20.466-4.171,35.914-22.309,35.914-43.989
	c0-24.755-20.138-44.893-44.893-44.893s-44.893,20.138-44.893,44.893c0,21.68,15.448,39.818,35.914,43.989v114.632h-41.9v-78.54
	l-41.9-41.9v-18.289c17.137-4.065,29.929-19.487,29.929-37.85c0-21.453-17.454-38.907-38.907-38.907s-38.907,17.454-38.907,38.907
	c0,18.363,12.791,33.785,29.929,37.85v25.727l41.9,41.9v71.102H79.422L79.422,464.114L79.422,464.114z M357.758,338.414
	c-11.551,0-20.95-9.399-20.95-20.95c0-11.551,9.399-20.95,20.95-20.95s20.95,9.399,20.95,20.95
	C378.708,329.017,369.309,338.414,357.758,338.414z M256.001,362.357c-14.853,0-26.936-12.083-26.936-26.936
	s12.083-26.936,26.936-26.936c14.853,0,26.936,12.083,26.936,26.936S270.852,362.357,256.001,362.357z M154.243,338.414
	c-11.551,0-20.95-9.399-20.95-20.95c0-11.551,9.399-20.95,20.95-20.95c11.551,0,20.95,9.399,20.95,20.95
	C175.193,329.017,165.795,338.414,154.243,338.414z"/>
<rect x="244.026" y="326.449" width="23.943" height="17.957"/>
<rect x="100.368" y="410.249" width="23.943" height="17.957"/>
<rect x="387.683" y="410.249" width="23.943" height="17.957"/>
<rect x="244.026" y="242.649" width="23.943" height="17.957"/>
<rect x="279.94" y="242.649" width="23.943" height="17.957"/>
<rect x="208.111" y="242.649" width="23.943" height="17.957"/>
<path d="M256.001,69.058c-21.453,0-38.907,17.454-38.907,38.907s17.454,38.907,38.907,38.907s38.907-17.454,38.907-38.907
	S277.453,69.058,256.001,69.058z M256.001,128.916c-11.551,0-20.95-9.399-20.95-20.95s9.399-20.95,20.95-20.95
	s20.95,9.399,20.95,20.95S267.552,128.916,256.001,128.916z"/>
<g>
</g>
<g>
</g>
<g>
</g>
<g>
</g>
<g>
</g>
<g>
</g>
<g>
</g>
<g>
</g>
<g>
</g>
<g>
</g>
<g>
</g>
<g>
</g>
<g>
</g>
<g>
</g>
<g>
</g>
</svg>
