<svg id="svg" version="1.1" xmlns="http://www.w3.org/2000/svg" xmlns:xlink="http://www.w3.org/1999/xlink" width="400" height="190.95193213949105" viewBox="0, 0, 400,190.95193213949105"><g id="svgg"><path id="path0" d="M97.455 8.599 C 53.977 12.344,25.131 54.050,37.238 95.664 C 48.729 135.160,92.606 155.443,130.388 138.725 C 165.225 123.311,180.449 81.935,164.073 47.180 L 163.026 44.958 162.559 45.523 C 160.008 48.612,157.349 53.055,155.576 57.193 L 154.937 58.683 155.409 60.115 C 166.911 95.020,139.822 131.835,102.639 131.831 C 61.963 131.826,35.115 89.299,52.674 52.686 C 68.093 20.536,109.611 11.054,137.166 33.390 C 138.082 34.132,138.922 34.809,139.032 34.895 C 139.159 34.993,139.592 34.533,140.205 33.652 C 141.464 31.842,144.080 28.588,145.828 26.657 L 147.209 25.134 146.601 24.566 C 140.570 18.918,129.056 12.955,119.604 10.583 C 112.959 8.916,103.558 8.074,97.455 8.599 M195.664 8.598 C 147.498 12.816,118.869 62.322,139.348 105.982 L 140.325 108.064 141.046 107.236 C 143.033 104.957,146.340 99.402,147.795 95.901 L 148.402 94.441 147.710 92.138 C 139.396 64.499,154.270 34.809,181.527 24.638 C 199.933 17.770,220.941 21.345,235.973 33.905 L 237.356 35.060 238.686 33.223 C 240.346 30.930,241.865 29.056,243.875 26.820 L 245.438 25.083 244.002 23.899 C 234.193 15.808,222.441 10.753,209.237 8.943 C 207.163 8.659,197.712 8.419,195.664 8.598 M293.874 8.598 C 272.203 10.496,253.966 21.223,242.110 39.047 C 229.022 58.721,227.231 84.668,237.497 105.878 L 238.560 108.074 239.522 106.865 C 241.793 104.007,244.239 99.901,245.707 96.480 L 246.571 94.468 245.912 92.239 C 233.257 49.449,274.085 9.942,316.400 24.032 C 350.995 35.552,365.163 76.601,345.059 107.069 C 326.916 134.567,288.745 140.155,263.561 119.000 L 262.371 118.001 260.757 120.216 C 259.015 122.608,257.127 124.911,255.372 126.788 L 254.267 127.970 255.709 129.159 C 279.305 148.620,313.638 149.795,338.488 131.993 C 368.983 110.147,376.162 67.954,354.608 37.254 C 343.690 21.703,326.869 11.605,307.446 8.943 C 305.372 8.659,295.921 8.419,293.874 8.598 M260.197 46.199 C 257.915 49.076,255.191 53.713,253.749 57.175 L 253.155 58.604 253.906 61.174 C 262.683 91.187,244.641 122.553,214.179 130.244 C 197.190 134.533,178.670 130.267,165.396 119.006 L 164.207 117.997 163.763 118.612 C 161.234 122.112,158.009 126.081,156.765 127.224 C 156.031 127.899,156.101 128.025,158.101 129.604 C 173.913 142.092,193.530 147.063,213.007 143.517 C 251.669 136.478,276.310 98.264,266.836 60.038 C 265.702 55.459,264.197 51.270,262.220 47.185 L 261.157 44.989 260.197 46.199 " stroke="none" fill="#c4c4c4" fill-rule="evenodd"></path><path id="path1" d="M99.529 50.346 C 79.402 52.930,69.252 75.791,80.750 92.644 C 89.572 105.576,109.374 107.950,120.518 97.412 C 122.254 95.770,122.221 95.670,118.638 91.840 C 114.407 87.316,114.557 87.390,112.621 88.893 C 104.067 95.535,91.341 90.773,89.156 80.113 C 86.307 66.211,101.376 56.286,112.462 64.762 C 114.521 66.336,114.345 66.409,118.266 62.370 C 122.151 58.369,122.219 58.221,120.775 56.848 C 115.468 51.803,107.404 49.336,99.529 50.346 M298.869 50.344 C 280.061 52.926,269.625 72.954,278.343 89.734 C 286.153 104.765,306.758 108.826,319.416 97.827 C 321.579 95.947,321.528 95.654,318.452 92.348 C 313.803 87.351,313.962 87.432,311.865 88.980 C 301.916 96.325,288.212 89.339,288.220 76.926 C 288.228 64.148,301.746 57.175,311.819 64.753 C 313.912 66.328,313.734 66.399,317.567 62.442 C 321.530 58.350,321.598 58.175,319.852 56.585 C 314.582 51.784,306.306 49.323,298.869 50.344 M178.785 51.358 L 178.322 51.821 178.322 77.063 L 178.322 102.305 178.713 102.802 L 179.104 103.299 189.722 103.299 C 201.704 103.299,202.773 103.209,206.583 101.882 C 227.793 94.492,230.579 65.782,211.188 54.422 C 205.894 51.321,203.263 50.895,189.393 50.895 L 179.248 50.895 178.785 51.358 M201.693 62.570 C 214.618 66.378,215.160 87.042,202.448 91.342 C 200.600 91.968,198.513 92.174,194.015 92.176 L 190.198 92.177 190.198 77.077 L 190.198 61.977 195.240 62.065 C 199.727 62.144,200.438 62.200,201.693 62.570 M22.337 156.389 C 14.356 158.075,10.119 167.080,13.798 174.540 C 17.240 181.520,26.770 183.596,32.949 178.712 C 34.238 177.694,34.232 177.342,32.905 176.088 C 31.683 174.932,31.776 174.943,30.527 175.803 C 24.780 179.755,17.426 176.672,16.619 169.972 C 15.650 161.924,24.008 156.931,30.565 161.642 C 31.743 162.488,31.783 162.483,32.947 161.304 C 34.252 159.983,34.232 159.695,32.752 158.596 C 29.747 156.365,26.106 155.593,22.337 156.389 M49.576 156.372 C 39.983 158.433,36.499 170.793,43.542 177.780 C 50.507 184.689,62.636 181.162,64.761 171.610 C 66.794 162.471,58.752 154.401,49.576 156.372 M77.144 156.358 C 73.645 157.345,72.102 159.307,72.102 162.771 C 72.102 166.431,73.462 168.020,78.498 170.243 C 82.308 171.925,83.645 173.233,83.465 175.103 C 83.143 178.453,78.575 179.062,74.919 176.241 C 73.620 175.239,73.300 175.271,72.484 176.482 C 71.555 177.862,71.599 178.317,72.746 179.160 C 79.279 183.955,88.682 180.487,87.521 173.711 C 87.010 170.726,85.158 168.937,80.585 167.006 C 77.092 165.531,75.757 164.331,75.732 162.642 C 75.684 159.482,79.698 158.448,83.325 160.687 C 84.805 161.601,85.060 161.566,85.875 160.339 C 86.810 158.931,86.730 158.428,85.451 157.666 C 83.176 156.309,79.415 155.717,77.144 156.358 M215.688 156.432 C 207.144 158.608,203.326 168.541,208.209 175.886 C 214.191 184.884,228.563 182.321,231.019 171.819 C 233.187 162.551,224.782 154.115,215.688 156.432 M239.711 156.205 C 239.466 156.449,239.565 180.677,239.811 180.924 C 240.133 181.245,242.682 181.224,242.953 180.897 C 243.099 180.722,243.178 178.026,243.212 172.098 L 243.261 163.552 250.481 172.159 C 259.057 182.382,258.107 181.371,259.071 181.301 L 259.849 181.244 259.849 168.897 L 259.849 156.550 258.264 156.495 C 256.095 156.420,256.281 155.658,256.173 165.059 L 256.079 173.267 248.669 164.673 C 241.337 156.171,241.250 156.079,240.547 156.079 C 240.156 156.079,239.780 156.136,239.711 156.205 M93.388 156.709 C 93.334 156.849,93.316 157.591,93.346 158.359 L 93.402 159.755 96.560 159.807 L 99.717 159.858 99.717 170.278 C 99.717 182.097,99.565 181.150,101.464 181.150 C 103.707 181.150,103.487 182.326,103.487 170.304 L 103.487 159.849 106.466 159.849 C 109.948 159.849,109.896 159.875,109.896 158.153 C 109.896 157.436,109.800 156.813,109.670 156.682 C 109.320 156.333,93.522 156.359,93.388 156.709 M117.383 156.572 C 117.309 156.647,117.248 162.119,117.248 168.734 C 117.248 182.503,117.042 181.150,119.133 181.150 C 121.134 181.150,121.018 181.458,121.018 176.148 L 121.018 171.536 123.562 171.536 L 126.106 171.536 128.451 176.224 C 129.741 178.803,130.936 180.966,131.107 181.031 C 131.777 181.288,134.365 181.159,134.671 180.854 C 135.111 180.413,135.147 180.501,132.611 175.789 C 129.904 170.760,130.018 171.134,131.051 170.670 C 136.672 168.140,136.315 159.335,130.497 156.991 C 129.392 156.546,117.780 156.175,117.383 156.572 M143.575 156.582 C 143.233 156.925,143.443 173.933,143.805 175.094 C 146.521 183.822,160.413 183.319,162.302 174.425 C 162.423 173.859,162.476 170.310,162.445 165.033 L 162.394 156.550 160.603 156.550 L 158.812 156.550 158.718 165.033 C 158.612 174.577,158.622 174.513,157.080 176.096 C 154.391 178.855,149.364 177.973,147.747 174.458 C 147.319 173.527,147.313 173.419,147.259 165.232 C 147.222 159.644,147.138 156.868,147.000 156.702 C 146.786 156.443,143.818 156.339,143.575 156.582 M170.908 156.582 C 170.663 156.827,170.770 159.605,171.033 159.823 C 171.199 159.960,172.957 160.048,176.195 160.082 L 181.106 160.132 176.677 167.672 C 168.938 180.847,169.277 180.183,169.947 180.854 C 170.308 181.214,184.837 181.308,185.498 180.955 C 185.952 180.712,186.044 178.142,185.611 177.783 C 185.445 177.645,183.639 177.558,180.262 177.524 L 175.165 177.474 180.891 167.593 C 186.446 158.005,186.871 157.163,186.390 156.682 C 186.144 156.436,171.151 156.339,170.908 156.582 M194.282 156.582 C 194.038 156.826,194.136 180.677,194.383 180.924 C 194.662 181.203,197.054 181.227,197.562 180.955 C 198.013 180.713,198.147 157.129,197.700 156.682 C 197.460 156.443,194.508 156.356,194.282 156.582 M269.871 156.582 C 269.627 156.826,269.725 180.677,269.972 180.924 C 270.251 181.203,272.643 181.227,273.151 180.955 C 273.602 180.713,273.736 157.129,273.289 156.682 C 273.050 156.443,270.097 156.356,269.871 156.582 M295.233 156.680 C 294.844 157.070,294.909 180.462,295.301 180.854 C 295.689 181.242,309.851 181.308,310.236 180.924 C 310.369 180.790,310.462 180.149,310.462 179.359 C 310.462 177.454,310.851 177.568,304.392 177.568 L 298.775 177.568 298.775 173.987 L 298.775 170.405 303.405 170.405 C 309.015 170.405,308.765 170.492,308.765 168.534 C 308.765 166.681,309.206 166.824,303.472 166.824 L 298.775 166.824 298.775 163.339 L 298.775 159.855 304.571 159.805 L 310.368 159.755 310.368 158.153 L 310.368 156.550 302.914 156.501 C 297.275 156.464,295.406 156.507,295.233 156.680 M318.758 156.829 C 318.410 157.480,318.589 180.738,318.944 180.977 C 319.435 181.306,329.184 181.076,330.537 180.702 C 342.744 177.334,342.729 159.951,330.517 156.828 C 328.304 156.262,319.061 156.263,318.758 156.829 M348.207 156.676 C 347.754 157.129,347.881 180.710,348.338 180.955 C 348.889 181.249,351.276 181.203,351.533 180.893 C 351.688 180.707,351.733 177.332,351.698 168.594 L 351.649 156.550 350.044 156.497 C 348.957 156.460,348.364 156.518,348.207 156.676 M361.671 156.582 C 361.363 156.890,361.533 180.916,361.844 181.035 C 362.008 181.098,365.013 181.150,368.522 181.150 C 375.919 181.150,375.495 181.259,375.495 179.359 C 375.495 177.495,375.715 177.568,370.109 177.568 L 365.316 177.568 365.316 167.238 C 365.316 159.455,365.260 156.853,365.090 156.682 C 364.850 156.443,361.898 156.356,361.671 156.582 M382.602 156.575 C 382.529 156.648,382.469 162.119,382.469 168.734 C 382.469 182.521,382.256 181.150,384.400 181.150 C 386.430 181.150,386.250 182.407,386.194 168.615 L 386.145 156.550 384.439 156.497 C 383.501 156.467,382.674 156.503,382.602 156.575 M55.134 160.137 C 58.985 161.460,61.835 165.800,61.358 169.616 C 60.216 178.753,48.441 180.810,44.378 172.583 C 41.004 165.750,47.979 157.679,55.134 160.137 M220.710 159.935 C 227.360 161.704,229.887 169.846,225.315 174.770 C 220.518 179.935,212.248 178.096,210.181 171.403 C 208.179 164.922,214.319 158.233,220.710 159.935 M329.845 160.401 C 338.003 163.166,337.534 175.112,329.181 177.287 C 328.452 177.477,327.166 177.568,325.220 177.568 L 322.337 177.568 322.337 168.681 L 322.337 159.794 325.495 159.896 C 328.037 159.977,328.885 160.076,329.845 160.401 M128.841 160.389 C 131.946 161.804,132.142 165.965,129.185 167.703 C 128.283 168.233,128.242 168.238,124.647 168.299 L 121.018 168.361 121.018 164.199 L 121.018 160.038 124.552 160.042 C 127.564 160.045,128.198 160.097,128.841 160.389 " stroke="none" fill="#134d8c" fill-rule="evenodd"></path><path id="path2" d="" stroke="none" fill="#94c8a8" fill-rule="evenodd"></path><path id="path3" d="" stroke="none" fill="#94c8a8" fill-rule="evenodd"></path><path id="path4" d="" stroke="none" fill="#94c8a8" fill-rule="evenodd"></path></g></svg>