<?xml version="1.0" standalone="no"?>
<!DOCTYPE svg PUBLIC "-//W3C//DTD SVG 20010904//EN"
 "http://www.w3.org/TR/2001/REC-SVG-20010904/DTD/svg10.dtd">
<svg version="1.0" xmlns="http://www.w3.org/2000/svg"
 width="1076.000000pt" height="852.000000pt" viewBox="0 0 1076.000000 852.000000"
 preserveAspectRatio="xMidYMid meet">

<g transform="translate(0.000000,852.000000) scale(0.100000,-0.100000)"
fill="#000000" stroke="none">
<path d="M3495 7680 c-271 -19 -702 -129 -950 -243 -218 -101 -416 -227 -579
-371 -88 -77 -259 -275 -285 -330 -30 -62 -41 -400 -49 -1466 l-7 -915 -110 0
c-93 0 -115 -3 -145 -21 -104 -61 -108 -193 -7 -268 24 -18 46 -22 143 -24
l115 -4 -6 -1511 c-4 -1038 -10 -1536 -18 -1587 -23 -153 -3 -245 68 -316 48
-47 86 -59 164 -52 60 6 100 33 153 106 139 194 393 314 813 387 225 39 426
50 639 36 484 -33 862 -130 1172 -302 195 -109 292 -180 439 -323 150 -145
182 -164 228 -133 12 8 83 74 157 146 144 141 272 231 476 338 300 157 728
257 1199 279 363 17 837 -70 1098 -203 114 -57 239 -160 271 -221 9 -17 34
-46 57 -65 109 -94 267 -50 319 89 25 67 28 122 13 234 -9 59 -14 540 -18
1593 l-7 1507 102 0 c113 0 149 11 194 59 23 24 30 42 34 84 5 68 -14 107 -70
145 -39 25 -49 27 -152 27 l-111 0 -7 915 c-8 1042 -19 1403 -47 1465 -26 57
-194 249 -295 338 -151 132 -313 237 -521 338 -171 83 -296 127 -525 184 -270
68 -403 87 -615 86 -369 0 -723 -75 -1025 -217 -146 -68 -369 -199 -470 -275
-51 -38 -96 -69 -100 -69 -5 0 -47 29 -94 64 -139 105 -380 241 -556 314 -256
106 -490 159 -810 181 -80 6 -149 10 -155 9 -5 0 -59 -4 -120 -8z m356 -370
c259 -26 531 -105 764 -220 192 -94 387 -244 405 -309 5 -20 12 -266 16 -548
l7 -512 -48 -28 c-153 -90 -286 -214 -305 -284 -24 -88 37 -149 112 -114 18 8
76 46 128 85 52 38 98 70 101 70 11 0 20 -792 9 -805 -6 -7 -32 -20 -58 -30
-101 -38 -341 -160 -425 -216 -49 -33 -89 -59 -91 -59 -1 0 -2 219 -1 488 0
456 -1 490 -19 529 -25 57 -78 91 -158 104 -41 6 -356 9 -854 6 -867 -4 -867
-4 -942 -64 -77 -62 -75 -58 -84 -316 -6 -199 -36 -738 -42 -744 -1 -1 -89 -3
-196 -4 l-195 -1 3 508 c2 280 5 779 6 1110 l3 600 36 57 c70 109 254 283 393
372 247 159 655 295 969 324 132 12 348 13 466 1z m3219 -1 c345 -32 748 -172
1015 -352 111 -76 308 -270 357 -352 l35 -60 4 -910 c2 -500 4 -997 4 -1104
l0 -193 -195 1 c-107 1 -195 3 -197 4 -5 6 -35 546 -42 749 -7 254 -7 251 -88
314 -76 58 -91 59 -993 59 -881 0 -857 1 -917 -55 -66 -62 -66 -66 -61 -595 2
-261 3 -475 2 -475 -2 0 -49 30 -105 66 -56 37 -174 100 -263 141 -88 40 -172
79 -186 86 l-25 13 4 399 c2 220 5 401 6 403 5 5 52 -26 135 -89 41 -32 88
-63 104 -69 51 -19 101 10 112 66 16 87 -89 198 -330 348 l-29 19 7 520 c5
394 10 528 20 551 13 31 146 146 246 213 203 137 608 272 900 302 124 12 348
13 480 0z m-3454 -2198 l509 -6 -2 -35 c-1 -19 -5 -457 -9 -973 -4 -516 -10
-939 -13 -941 -3 -2 -105 0 -226 5 -121 4 -444 11 -718 15 -431 6 -500 9 -505
22 -3 9 0 128 6 266 19 401 31 732 42 1170 6 224 13 428 17 453 l6 45 192 -7
c105 -4 421 -10 701 -14z m4128 -43 c4 -35 13 -304 21 -598 8 -294 22 -697 31
-896 10 -198 15 -368 11 -377 -6 -15 -32 -17 -249 -17 -205 0 -757 -11 -1108
-22 l-95 -3 -6 820 c-3 451 -8 890 -10 975 l-3 155 555 7 c305 4 583 9 619 11
36 2 102 4 146 5 l82 2 6 -62z m-2694 -1190 c0 -238 3 -571 7 -739 l6 -307
-88 -41 c-177 -83 -314 -192 -356 -284 -41 -91 -10 -171 66 -171 31 0 44 7 69
36 30 34 186 132 261 163 34 15 35 15 36 -7 0 -13 5 -342 10 -733 5 -390 13
-754 17 -808 4 -54 6 -100 4 -102 -1 -1 -33 29 -70 67 -242 252 -820 474
-1384 533 -268 28 -695 18 -928 -21 -257 -43 -550 -146 -729 -256 l-33 -21 6
589 c4 324 11 933 16 1354 5 421 6 802 3 847 l-6 82 188 3 c103 2 191 0 197
-3 10 -6 1 -268 -22 -713 -18 -338 -14 -384 38 -439 50 -53 74 -59 262 -68
260 -12 1057 -29 1361 -29 304 0 347 7 398 65 42 48 51 90 51 235 0 69 5 278
11 465 l11 340 31 28 c18 16 77 63 132 105 55 42 125 96 155 121 50 41 238
140 268 141 9 0 12 -93 12 -432z m485 383 c65 -32 140 -80 208 -133 58 -46
142 -111 185 -144 l79 -61 6 -179 c4 -99 10 -309 13 -469 3 -159 10 -307 15
-328 6 -20 24 -53 40 -72 52 -59 93 -65 408 -65 333 0 1450 27 1500 36 77 14
145 75 157 141 7 35 -5 390 -26 813 -6 102 -10 202 -10 223 l0 37 193 0 192 0
2 -398 c1 -218 7 -862 13 -1430 7 -568 10 -1035 8 -1036 -1 -2 -37 15 -79 39
-231 128 -529 217 -842 250 -170 17 -545 20 -717 5 -469 -43 -944 -193 -1260
-398 -47 -30 -121 -90 -165 -133 l-80 -78 7 102 c4 56 12 422 17 812 5 391 10
720 10 733 1 22 2 22 36 7 74 -30 231 -130 267 -168 33 -35 41 -39 70 -33 46
8 78 48 78 94 -1 116 -138 251 -367 359 l-96 46 6 330 c4 182 7 514 7 739 0
293 3 408 11 408 6 0 57 -22 114 -49z"/>
<path d="M3315 6594 c-46 -24 -73 -53 -91 -100 -14 -37 -15 -55 -5 -126 6 -46
16 -155 21 -243 16 -251 41 -410 75 -476 18 -34 69 -69 103 -69 68 0 114 65
131 185 6 39 11 217 12 397 l2 328 -27 40 c-47 71 -150 101 -221 64z"/>
<path d="M4204 6336 c-53 -23 -82 -73 -166 -286 -71 -179 -82 -215 -86 -282
l-5 -77 36 -36 c31 -31 41 -35 88 -35 51 0 55 2 103 53 31 31 83 109 133 197
133 236 143 257 143 307 0 124 -132 209 -246 159z"/>
<path d="M2442 6293 c-43 -21 -74 -65 -79 -116 -4 -35 6 -68 56 -190 122 -296
181 -387 250 -387 77 0 105 52 91 167 -16 123 -97 437 -124 478 -40 60 -126
82 -194 48z"/>
<path d="M6987 6590 c-20 -11 -49 -38 -63 -60 l-27 -40 2 -328 c1 -180 6 -358
12 -397 22 -155 96 -220 187 -165 59 36 91 147 111 390 6 69 16 188 23 265 20
233 14 266 -58 321 -48 37 -132 43 -187 14z"/>
<path d="M6096 6326 c-88 -53 -109 -149 -55 -252 100 -191 199 -354 245 -401
48 -51 53 -53 102 -53 94 0 137 65 119 180 -11 72 -158 445 -193 488 -51 65
-147 81 -218 38z"/>
<path d="M7873 6290 c-57 -34 -72 -72 -139 -350 -62 -255 -47 -340 57 -340 69
0 128 91 250 387 67 163 72 203 31 261 -43 60 -138 80 -199 42z"/>
<path d="M3708 4917 c-24 -18 -83 -64 -133 -101 -204 -155 -265 -209 -265
-233 0 -26 26 -31 63 -12 75 41 430 284 443 304 15 23 15 27 0 50 -23 34 -56
32 -108 -8z"/>
<path d="M3955 4698 c-33 -18 -177 -140 -365 -307 -151 -136 -220 -204 -220
-218 0 -45 113 26 578 367 40 29 79 65 86 79 16 31 6 65 -23 80 -24 13 -31 13
-56 -1z"/>
<path d="M7364 4954 c-349 -267 -394 -303 -394 -325 0 -32 30 -34 79 -6 117
66 417 275 428 297 10 20 10 29 -1 45 -22 34 -58 30 -112 -11z"/>
<path d="M7605 4731 c-84 -52 -575 -493 -575 -517 0 -20 27 -17 69 8 149 89
584 410 598 440 13 28 1 63 -26 77 -26 15 -31 14 -66 -8z"/>
</g>
</svg>
