<svg id="visual" viewBox="0 0 900 400" width="900" height="400" xmlns="http://www.w3.org/2000/svg" xmlns:xlink="http://www.w3.org/1999/xlink" version="1.1"><path d="M0 290L37.5 292.5C75 295 150 300 225 301C300 302 375 299 450 294.3C525 289.7 600 283.3 675 284C750 284.7 825 292.3 862.5 296.2L900 300L900 401L862.5 401C825 401 750 401 675 401C600 401 525 401 450 401C375 401 300 401 225 401C150 401 75 401 37.5 401L0 401Z" fill="#5401a7"></path><path d="M0 295L37.5 296C75 297 150 299 225 301C300 303 375 305 450 304C525 303 600 299 675 299.3C750 299.7 825 304.3 862.5 306.7L900 309L900 401L862.5 401C825 401 750 401 675 401C600 401 525 401 450 401C375 401 300 401 225 401C150 401 75 401 37.5 401L0 401Z" fill="#4b32c0"></path><path d="M0 343L37.5 340.8C75 338.7 150 334.3 225 332.8C300 331.3 375 332.7 450 332.8C525 333 600 332 675 331.7C750 331.3 825 331.7 862.5 331.8L900 332L900 401L862.5 401C825 401 750 401 675 401C600 401 525 401 450 401C375 401 300 401 225 401C150 401 75 401 37.5 401L0 401Z" fill="#3d4ed7"></path><path d="M0 363L37.5 363.2C75 363.3 150 363.7 225 361.8C300 360 375 356 450 356.2C525 356.3 600 360.7 675 359.3C750 358 825 351 862.5 347.5L900 344L900 401L862.5 401C825 401 750 401 675 401C600 401 525 401 450 401C375 401 300 401 225 401C150 401 75 401 37.5 401L0 401Z" fill="#2968ec"></path><path d="M0 363L37.5 365.3C75 367.7 150 372.3 225 375.5C300 378.7 375 380.3 450 379C525 377.7 600 373.3 675 370.7C750 368 825 367 862.5 366.5L900 366L900 401L862.5 401C825 401 750 401 675 401C600 401 525 401 450 401C375 401 300 401 225 401C150 401 75 401 37.5 401L0 401Z" fill="#0080ff"></path></svg>