<?xml version="1.0" encoding="UTF-8"?>
<svg id="Livello_1" data-name="Livello 1" xmlns="http://www.w3.org/2000/svg" xmlns:xlink="http://www.w3.org/1999/xlink" viewBox="0 0 1000 1000">
  <defs>
    <style>
      .cls-1 {
        fill: url(#Sfumatura_senza_nome_61);
      }
    </style>
    <linearGradient id="Sfumatura_senza_nome_61" data-name="Sfumatura senza nome 61" x1="193.34" y1="296.08" x2="783.6" y2="709.39" gradientTransform="matrix(1, 0, 0, 1, 0, 0)" gradientUnits="userSpaceOnUse">
      <stop offset="0" stop-color="#127dac"/>
      <stop offset=".05" stop-color="#11699f"/>
      <stop offset=".12" stop-color="#105392"/>
      <stop offset=".19" stop-color="#104589"/>
      <stop offset=".25" stop-color="#104187"/>
      <stop offset=".47" stop-color="#331f97"/>
      <stop offset=".66" stop-color="#4b09a2"/>
      <stop offset=".78" stop-color="#5401a7"/>
    </linearGradient>
  </defs>
  <path class="cls-1" d="M458.86,633.46l-251.35,243.6c-9.89,9.58-26.17,7.15-32.84-4.9l-42.16-83.69c-1.96-3.89-5.9-6.37-10.25-6.47l-14.92-.32c-5.46-.12-13-6.94-13.74-12.35-1.44-10.43,.86-25.71,2.82-40.12l49.77-357.38c1.76-12.89,9.18-24.32,20.24-31.16l112.19-69.39c8.53-5.28,19.55,.86,19.55,10.89v271.73c0,10.59,12.13,16.61,20.56,10.2l70.79-61.46c3.11-2.7,5.43-6.2,6.69-10.12l13.49-41.77c2.33-7.2,14.09-10.6,20.62-4.45l57,46.35c8.91,8.38,13.96,20.07,13.96,32.3l-24.97,78.18c-5.13,14.62-10.53,23.63-17.45,30.33Zm443.75-241.19L684.76,53.07c-5.67-13.77-22.34-19.17-35.01-11.33l-220.64,136.47c-5.91,3.65-9.38,10.22-9.08,17.16l-.02,126.76c.65,14.99,17.48,23.47,29.92,15.08l148.69-111.1c7.7-5.2,18.02-4.13,24.5,2.53l59.74,179.64c2.56,8.58,1.77,15.66-.17,22.3l-94.84,333.79c-2.9,9.93-13.15,15.77-23.17,13.21l-89.17-22.77c-12.14-3.1-23.94,6.07-23.94,18.6l-10,169.26c0,14.44,15.35,23.71,28.13,16.99l220.16-120.09c3.73-1.96,6.71-5.09,8.48-8.91l203.29-393.16c6.63-14.27,6.99-30.67,1-45.22Z"/>
</svg>