<?xml version="1.0" encoding="utf-8"?>
<!-- Svg Vector Icons : http://www.onlinewebfonts.com/icon -->
<!DOCTYPE svg PUBLIC "-//W3C//DTD SVG 1.1//EN" "http://www.w3.org/Graphics/SVG/1.1/DTD/svg11.dtd">
<svg version="1.1" xmlns="http://www.w3.org/2000/svg" xmlns:xlink="http://www.w3.org/1999/xlink" x="0px" y="0px" viewBox="0 0 1000 1000" enable-background="new 0 0 1000 1000" xml:space="preserve">
<metadata> Svg Vector Icons : http://www.onlinewebfonts.com/icon </metadata>
<g><g transform="translate(0.000000,511.000000) scale(0.100000,-0.100000)"><path d="M3950.3,4395.8c-32.8-17.5-67.8-48.1-76.5-70c-10.9-21.9-24.1-373.9-30.6-782.8l-10.9-743.4l-868.1-10.9l-870.3-10.9l-59-61.2l-61.2-59l-6.6-743.4l-6.6-743.4h-820c-900.9,0-938-4.4-1001.4-129C88.8,947.5,86.7-723,134.7-817c56.9-109.3,83.1-111.5,986.2-111.5h841.8v-590.4v-590.4h-857.1c-780.6,0-863.7-4.4-905.2-39.4c-94-74.4-96.2-98.4-96.2-999.3c0-962.1,0-970.8,142.1-1029.9c63.4-26.2,634.1-30.6,3828.7-30.6c4158.9,0,3859.3-10.9,3931.5,142.1c30.6,61.2,35,181.5,35,785v712.8h855h855l74.3,74.3l74.4,74.3v900.9V-618l-74.4,74.3l-74.3,74.4h-855h-855v579.4v579.4h820c903,0,940.2,4.4,1003.6,129c30.6,56.8,35,188,35,929.3c0,623.2-6.6,879-26.2,920.6c-52.5,118.1-74.3,120.3-990.5,120.3h-841.8v710.6c0,785-6.6,833.1-129,894.3c-59,30.6-284.3,35-1985.4,35C4304.6,4426.4,3998.4,4422,3950.3,4395.8z M7560.4,3390v-579.4h-1629h-1629V3390v579.4h1629h1629V3390z M5701.8,1750v-579.4h-1629h-1629V1750v579.4h1629h1629V1750z M9440.8,1750v-579.4h-1629h-1629V1750v579.4h1629h1629V1750z M3821.3,110.1v-579.4h-1629h-1629v579.4v579.4h1629h1629V110.1z M7560.4,110.1v-579.4h-1629h-1629v579.4v579.4h1629h1629V110.1z M9436.4-1505.8c2.2-330.2-4.4-577.2-15.3-588.2c-13.1-13.1-640.7-13.1-1629-4.4l-1609.3,17.5v564.1v566.3l826.5,6.6c452.6,2.2,1183,4.4,1622.5,4.4h798.1L9436.4-1505.8z M5701.8-1518.9v-568.5h-1629h-1629v568.5v568.5h1629h1629V-1518.9z M3821.3-3147.9v-579.4h-1629h-1629v579.4v579.4h1629h1629V-3147.9z M7560.4-3147.9v-579.4h-1629h-1629v579.4v579.4h1629h1629V-3147.9z"/></g></g>
</svg>